<?xml version="1.0" encoding="UTF-8"?>
<svg version="1.1" xmlns="http://www.w3.org/2000/svg" width="128" height="128">
<path d="M0 0 C42.24 0 84.48 0 128 0 C128 42.24 128 84.48 128 128 C85.76 128 43.52 128 0 128 C0 85.76 0 43.52 0 0 Z " fill="#FBFBFB" transform="translate(0,0)"/>
<path d="M0 0 C42.24 0 84.48 0 128 0 C128 42.24 128 84.48 128 128 C85.76 128 43.52 128 0 128 C0 85.76 0 43.52 0 0 Z M3 3 C3 43.26 3 83.52 3 125 C43.26 125 83.52 125 125 125 C125 116.75 125 108.5 125 100 C123.68 100 122.36 100 121 100 C121 98.35 121 96.7 121 95 C119.02 95.99 119.02 95.99 117 97 C117 97.66 117 98.32 117 99 C115.55989519 98.74337755 114.1229313 98.46909179 112.6875 98.1875 C111.48673828 97.96126953 111.48673828 97.96126953 110.26171875 97.73046875 C107.76554413 96.92427764 106.67577894 95.97947998 105 94 C103.515 94.495 103.515 94.495 102 95 C101.67 93.02 101.34 91.04 101 89 C100.67 89 100.34 89 100 89 C100 91.31 100 93.62 100 96 C99.01 96 98.02 96 97 96 C97 94.35 97 92.7 97 91 C96.505 92.98 96.505 92.98 96 95 C95.38125 94.79375 94.7625 94.5875 94.125 94.375 C93.073125 94.189375 93.073125 94.189375 92 94 C91.34 94.66 90.68 95.32 90 96 C88.34623289 94.34623289 88.36528792 92.19051636 87.9375 89.9375 C87.67259766 88.55884766 87.67259766 88.55884766 87.40234375 87.15234375 C87.26957031 86.44207031 87.13679688 85.73179688 87 85 C86.67 85 86.34 85 86 85 C85.67 89.29 85.34 93.58 85 98 C84.01 98 83.02 98 82 98 C82.165 97.38125 82.33 96.7625 82.5 96.125 C83.35670492 90.77059425 83.72624001 85.17872003 82 80 C84.875 80.1875 84.875 80.1875 88 81 C90.25948173 84.65820852 90.50369609 88.78141678 91 93 C91.33 93 91.66 93 92 93 C92.33 89.37 92.66 85.74 93 82 C93.99 81.67 94.98 81.34 96 81 C96.66 82.32 97.32 83.64 98 85 C99.65 84.67 101.3 84.34 103 84 C103.495 87.465 103.495 87.465 104 91 C104.61875 90.21625 105.2375 89.4325 105.875 88.625 C108.9048067 84.8822976 110.27059507 83.74674815 115 83 C113.88059018 87.85077588 112.8665284 90.777893 109 94 C110.65 94.66 112.3 95.32 114 96 C114 95.34 114 94.68 114 94 C114.61875 93.95875 115.2375 93.9175 115.875 93.875 C118.32799882 93.14787007 118.32799882 93.14787007 119.3125 90.125 C120.28188276 86.99118513 120.28188276 86.99118513 119 84 C120.98 84.495 120.98 84.495 123 85 C123.495 88.96 123.495 88.96 124 93 C124.33 93 124.66 93 125 93 C125 78.15 125 63.3 125 48 C121.04 49.98 121.04 49.98 117 52 C117.495 58.435 117.495 58.435 118 65 C116.9275 64.67 115.855 64.34 114.75 64 C111.00268399 62.8282249 111.00268399 62.8282249 107 63 C106.74095695 60.01582406 106.68738718 58.46626997 108.3828125 55.9375 C108.95773438 55.298125 109.53265625 54.65875 110.125 54 C111.79352338 52.00298986 111.79352338 52.00298986 113 50 C112.60019461 47.20825949 112.60019461 47.20825949 111 45 C110.64141484 43.67323492 110.2981424 42.34164079 110 41 C109.01 41.99 109.01 41.99 108 43 C105.5 43.3125 105.5 43.3125 103 43 C102.34 42.01 101.68 41.02 101 40 C99.7625 40.37125 98.525 40.7425 97.25 41.125 C94.5238932 41.80532046 93.3069359 42.08657167 90.5625 41.3125 C89 40 89 40 88 37 C89.65 37.33 91.3 37.66 93 38 C93 37.34 93 36.68 93 36 C91.0399719 34.36323743 91.0399719 34.36323743 89 33 C89.33 31.35 89.66 29.7 90 28 C91.98 27.34 93.96 26.68 96 26 C96 26.99 96 27.98 96 29 C94.68 29.33 93.36 29.66 92 30 C93.25125384 33.75376152 94.5652404 34.24073289 98 36 C98.66 36 99.32 36 100 36 C99.01 32.04 99.01 32.04 98 28 C99.485 28.495 99.485 28.495 101 29 C102.16796875 31.72265625 102.16796875 31.72265625 103.1875 35.0625 C103.53167969 36.16722656 103.87585938 37.27195313 104.23046875 38.41015625 C104.48441406 39.26480469 104.73835938 40.11945312 105 41 C109.0042343 37.50912907 110.62671065 35.35048061 111 30 C112.32 30 113.64 30 115 30 C114.87431641 31.06927734 114.87431641 31.06927734 114.74609375 32.16015625 C114.15810839 37.69019573 113.90805694 42.54028471 115 48 C119.30574422 47.38489368 120.98445076 46.40932954 125 44 C125 30.47 125 16.94 125 3 C84.74 3 44.48 3 3 3 Z " fill="#000000" transform="translate(0,0)"/>
<path d="M0 0 C0 1.32 0 2.64 0 4 C-0.804375 4.474375 -1.60875 4.94875 -2.4375 5.4375 C-5.25476709 6.76479918 -5.25476709 6.76479918 -5.8125 9.6875 C-5.9053125 10.8321875 -5.9053125 10.8321875 -6 12 C-6.66 12 -7.32 12 -8 12 C-8.02708567 13.60407328 -8.04643483 15.2082785 -8.0625 16.8125 C-8.07410156 17.70582031 -8.08570312 18.59914063 -8.09765625 19.51953125 C-8.11009967 22.13413791 -8.11009967 22.13413791 -7 25 C-6.01 22.69 -5.02 20.38 -4 18 C-2.35 18 -0.7 18 1 18 C0.125 22.75 0.125 22.75 -1 25 C2.78269337 24.47462592 5.35288832 23.83619109 8 21 C8.81314911 17.39534252 8.81314911 17.39534252 9 14 C5.33694766 13.25073929 2.57644848 12.7619986 -1 14 C-0.67 12.35 -0.34 10.7 0 9 C3.42943519 7.81228277 5.37784675 8.19773777 8.75 9.4375 C9.94882813 9.86869141 9.94882813 9.86869141 11.171875 10.30859375 C11.77515625 10.53675781 12.3784375 10.76492187 13 11 C13.57007576 20.69128788 13.57007576 20.69128788 10 25 C6.47824579 28.42657167 3.88346661 29.54572404 -1 30 C-1 29.34 -1 28.68 -1 28 C-2.98 28.99 -2.98 28.99 -5 30 C-4.505 31.5778125 -4.505 31.5778125 -4 33.1875 C-3.16033218 36.38873357 -2.80249096 38.7411008 -3 42 C-6.75 43.125 -6.75 43.125 -9 42 C-9 41.01 -9 40.02 -9 39 C-8.34 39 -7.68 39 -7 39 C-7.33 38.34 -7.66 37.68 -8 37 C-9.98 37.495 -9.98 37.495 -12 38 C-11.67 34.7 -11.34 31.4 -11 28 C-12.65 28 -14.3 28 -16 28 C-16 24.04 -16 20.08 -16 16 C-18.475 17.485 -18.475 17.485 -21 19 C-21.66 19 -22.32 19 -23 19 C-23.33 20.32 -23.66 21.64 -24 23 C-23.01 23 -22.02 23 -21 23 C-21 23.99 -21 24.98 -21 26 C-26.33447 28.667235 -30.02503906 29.50635262 -36 29 C-38 27 -38 27 -38.4375 24.625 C-38 22 -38 22 -35.6875 19.8125 C-29.68634908 15.76521217 -29.68634908 15.76521217 -26.0625 14.9375 C-25.39347656 14.78152344 -24.72445312 14.62554687 -24.03515625 14.46484375 C-22.63098565 14.14412148 -21.22153424 13.84597201 -19.80859375 13.56640625 C-18.91333984 13.28603516 -18.91333984 13.28603516 -18 13 C-17.67 12.34 -17.34 11.68 -17 11 C-16.01 11 -15.02 11 -14 11 C-14 8.03 -14 5.06 -14 2 C-12.68 2.33 -11.36 2.66 -10 3 C-10 3.99 -10 4.98 -10 6 C-9.52949219 5.566875 -9.05898438 5.13375 -8.57421875 4.6875 C-7.95160156 4.130625 -7.32898438 3.57375 -6.6875 3 C-5.76517578 2.1646875 -5.76517578 2.1646875 -4.82421875 1.3125 C-3 0 -3 0 0 0 Z " fill="#2FFC00" transform="translate(66,70)"/>
<path d="M0 0 C3.35279282 0.46245418 5.68548638 1.52016398 8 4 C8.64892341 9.00598059 7.9581732 11.93251185 5 16 C9.21015871 16.95685425 11.25712373 17.13181214 15 15 C14.87431641 14.09507813 14.87431641 14.09507813 14.74609375 13.171875 C14.64425781 12.37265625 14.54242188 11.5734375 14.4375 10.75 C14.33308594 9.96109375 14.22867188 9.1721875 14.12109375 8.359375 C13.99788281 5.95874887 14.16840235 4.25079123 15 2 C18.78795358 0.10602321 22.90808741 0.113526 27 1 C30.75775716 4.26833625 31.88218586 7.97333396 32.4375 12.8125 C32 16 32 16 30 19 C26.27671717 20.96506594 23.17974959 21.36345649 19 21 C18.01 20.34 17.02 19.68 16 19 C15.01 19.66 14.02 20.32 13 21 C10.66015625 21.01171875 10.66015625 21.01171875 8.0625 20.6875 C7.20785156 20.58824219 6.35320313 20.48898438 5.47265625 20.38671875 C3 20 3 20 0.94140625 19.44921875 C-1.18380943 18.95746864 -2.95320705 19.00113348 -5.125 19.125 C-6.40375 19.08375 -7.6825 19.0425 -9 19 C-11 16 -11 16 -11 12 C-6.99799622 10.39919849 -3.95443764 11.70720308 0 13 C2.0624994 11.18777466 2.0624994 11.18777466 4 9 C4 8.01 4 7.02 4 6 C2.35 6.66 0.7 7.32 -1 8 C-1.04241723 5.66705225 -1.04092937 3.33297433 -1 1 C-0.67 0.67 -0.34 0.34 0 0 Z " fill="#FD0000" transform="translate(49,48)"/>
<path d="M0 0 C1.98 0 3.96 0 6 0 C7.32 2.31 8.64 4.62 10 7 C10 5.35 10 3.7 10 2 C11.8125 1.3125 11.8125 1.3125 14 1 C15.02104551 1.97850195 16.0206121 2.97980427 17 4 C18.32 4 19.64 4 21 4 C21.66 5.32 22.32 6.64 23 8 C24.0828125 6.7625 24.0828125 6.7625 25.1875 5.5 C28 3 28 3 30.8125 2.6875 C31.534375 2.790625 32.25625 2.89375 33 3 C33.3125 5.6875 33.3125 5.6875 33 9 C30.5 11.875 30.5 11.875 28 14 C29.32 14.66 30.64 15.32 32 16 C32 15.34 32 14.68 32 14 C32.99 13.67 33.98 13.34 35 13 C36.31035007 9.82757352 37 7.44118336 37 4 C39.475 4.495 39.475 4.495 42 5 C42.495 12.425 42.495 12.425 43 20 C41.68 20 40.36 20 39 20 C38.505 18.02 38.505 18.02 38 16 C37.01 16.33 36.02 16.66 35 17 C35 17.66 35 18.32 35 19 C28.68141593 19.49557522 28.68141593 19.49557522 25.25 17 C24.5075 16.34 23.765 15.68 23 15 C22.01 15 21.02 15 20 15 C19.67 14.34 19.34 13.68 19 13 C18.67 13.99 18.34 14.98 18 16 C16.906875 15.79375 15.81375 15.5875 14.6875 15.375 C10.9161599 14.59653475 10.9161599 14.59653475 8 17 C5.23776722 14.23776722 5.42143709 11.79293383 5 8 C4.34 11.3 3.68 14.6 3 18 C2.01 18 1.02 18 0 18 C0 12.06 0 6.12 0 0 Z " fill="#30FC01" transform="translate(82,80)"/>
<path d="M0 0 C0 0.99 0 1.98 0 3 C-0.99 3.33 -1.98 3.66 -3 4 C-3 4.66 -3 5.32 -3 6 C0.465 7.98 0.465 7.98 4 10 C3.505 8.8553125 3.505 8.8553125 3 7.6875 C2 5 2 5 2 2 C3.859375 2.15234375 3.859375 2.15234375 6 3 C7.265625 5.50390625 7.265625 5.50390625 8.25 8.5625 C8.58515625 9.57441406 8.9203125 10.58632813 9.265625 11.62890625 C9.62914062 12.80259766 9.62914062 12.80259766 10 14 C12.55162546 10.78425284 13.83269511 7.95087809 15 4 C16.32 4 17.64 4 19 4 C19 9.94 19 15.88 19 22 C21.64 20.68 24.28 19.36 27 18 C27.66 18 28.32 18 29 18 C28.875 20.3125 28.875 20.3125 28 23 C24.9375 24.8125 24.9375 24.8125 22 26 C22 30.29 22 34.58 22 39 C14.18181818 39 14.18181818 39 11 37 C10.1875 33.875 10.1875 33.875 10 31 C10.66 31 11.32 31 12 31 C12.433125 30.1028125 12.433125 30.1028125 12.875 29.1875 C14 27 14 27 16 24 C15.15521502 21.47130918 15.15521502 21.47130918 14 19 C14 18.01 14 17.02 14 16 C13.34 16.66 12.68 17.32 12 18 C9.5 18.3125 9.5 18.3125 7 18 C6.34 17.01 5.68 16.02 5 15 C3.783125 15.391875 2.56625 15.78375 1.3125 16.1875 C-1.93330357 17.00615738 -2.75762518 17.09594003 -6 15.8125 C-6.66 15.214375 -7.32 14.61625 -8 14 C-8 13.01 -8 12.02 -8 11 C-5.525 11.495 -5.525 11.495 -3 12 C-3 11.34 -3 10.68 -3 10 C-3.639375 9.773125 -4.27875 9.54625 -4.9375 9.3125 C-7 8 -7 8 -7.9375 5.5625 C-8 3 -8 3 -6.875 1.1875 C-4.46186517 -0.34081872 -2.80362763 -0.22732116 0 0 Z " fill="#30F902" transform="translate(96,26)"/>
<path d="M0 0 C0.99 0 1.98 0 3 0 C3 4.29 3 8.58 3 13 C3.66 13 4.32 13 5 13 C5 13.99 5 14.98 5 16 C4.34 16 3.68 16 3 16 C3 19.3 3 22.6 3 26 C1.68 26.33 0.36 26.66 -1 27 C-0.67 23.37 -0.34 19.74 0 16 C-1.65 16.33 -3.3 16.66 -5 17 C-5.08765625 17.58265625 -5.1753125 18.1653125 -5.265625 18.765625 C-6.19870434 21.60456853 -7.51699008 22.78562286 -9.75 24.75 C-10.76320313 25.67039062 -10.76320313 25.67039062 -11.796875 26.609375 C-14 28 -14 28 -19 28 C-19.33 23.38 -19.66 18.76 -20 14 C-24.94769277 15.32291984 -24.94769277 15.32291984 -25.92578125 17.9453125 C-26.05339844 18.66460938 -26.18101563 19.38390625 -26.3125 20.125 C-26.539375 21.40375 -26.76625 22.6825 -27 24 C-27.99 24 -28.98 24 -30 24 C-30.0272415 22.58344207 -30.04650467 21.16672955 -30.0625 19.75 C-30.07410156 18.96109375 -30.08570313 18.1721875 -30.09765625 17.359375 C-30 15 -30 15 -29 11 C-23.06 10.505 -23.06 10.505 -17 10 C-15.71553081 12.56893838 -15.67022856 14.76576337 -15.4375 17.625 C-15.35371094 18.62789062 -15.26992188 19.63078125 -15.18359375 20.6640625 C-15.12300781 21.43492188 -15.06242187 22.20578125 -15 23 C-11.46413986 19.82679218 -9.41421969 17.83256305 -9 13 C-6.03 13 -3.06 13 0 13 C0 8.71 0 4.42 0 0 Z " fill="#2FFE00" transform="translate(69,12)"/>
<path d="M0 0 C4.25066508 0.12144757 7.20327467 2.19319531 10.64453125 4.453125 C12 6 12 6 12.5 8.46484375 C12 11 12 11 9.91796875 12.80078125 C9.01691406 13.29964844 8.11585937 13.79851562 7.1875 14.3125 C6.29417969 14.82425781 5.40085937 15.33601563 4.48046875 15.86328125 C2 17 2 17 -1 17 C-1.33 20.63 -1.66 24.26 -2 28 C-2.99 28 -3.98 28 -5 28 C-5.61230018 9.72170588 -5.61230018 9.72170588 -2 2 C-1.34 1.34 -0.68 0.68 0 0 Z " fill="#30FE00" transform="translate(9,74)"/>
<path d="M0 0 C0.60328125 0.05800781 1.2065625 0.11601562 1.828125 0.17578125 C2.01243364 4.23057143 1.72138016 6.62592782 -0.171875 10.17578125 C-0.171875 11.49578125 -0.171875 12.81578125 -0.171875 14.17578125 C1.148125 14.17578125 2.468125 14.17578125 3.828125 14.17578125 C4.158125 13.18578125 4.488125 12.19578125 4.828125 11.17578125 C5.818125 11.17578125 6.808125 11.17578125 7.828125 11.17578125 C7.640625 13.48828125 7.640625 13.48828125 6.828125 16.17578125 C4.578125 18.05078125 4.578125 18.05078125 1.828125 19.17578125 C-0.984375 18.86328125 -0.984375 18.86328125 -3.171875 18.17578125 C-3.501875 16.52578125 -3.831875 14.87578125 -4.171875 13.17578125 C-4.955625 13.21703125 -5.739375 13.25828125 -6.546875 13.30078125 C-9.171875 13.17578125 -9.171875 13.17578125 -11.171875 11.17578125 C-11.65580316 7.54632001 -11.37886279 5.58975683 -9.734375 2.30078125 C-6.38013635 -0.48078251 -4.22434119 -0.23847087 0 0 Z " fill="#30FE00" transform="translate(29.171875,22.82421875)"/>
<path d="M0 0 C3.96 0 7.92 0 12 0 C12 0.99 12 1.98 12 3 C9.03 3 6.06 3 3 3 C3 3.99 3 4.98 3 6 C5.64 6.33 8.28 6.66 11 7 C11.33 6.34 11.66 5.68 12 5 C13.32 5.33 14.64 5.66 16 6 C16 6.99 16 7.98 16 9 C12.10835652 10.29721449 9.10570774 10.13033993 5 10 C4.34 9.67 3.68 9.34 3 9 C3 15.27 3 21.54 3 28 C2.01 28 1.02 28 0 28 C0 18.76 0 9.52 0 0 Z " fill="#2FFD00" transform="translate(4,13)"/>
<path d="M0 0 C2.5 0.3125 2.5 0.3125 5 1 C6.28446919 3.56893838 6.32977144 5.76576337 6.5625 8.625 C6.64628906 9.62789062 6.73007813 10.63078125 6.81640625 11.6640625 C6.87699219 12.43492188 6.93757813 13.20578125 7 14 C6.195625 13.814375 5.39125 13.62875 4.5625 13.4375 C3.716875 13.293125 2.87125 13.14875 2 13 C1.67 13.33 1.34 13.66 1 14 C-1.33944736 13.71269945 -3.6739143 13.38063221 -6 13 C-6.3125 9.8125 -6.3125 9.8125 -6 6 C-3.5625 3.125 -3.5625 3.125 -1 1 C-0.67 0.67 -0.34 0.34 0 0 Z " fill="#3CFB10" transform="translate(79,25)"/>
<path d="M0 0 C2.75 0.125 2.75 0.125 6 1 C8.4375 3.75 8.4375 3.75 10 7 C9.75 9.875 9.75 9.875 9 12 C6.69 12.66 4.38 13.32 2 14 C0 12 0 12 -0.1953125 9.1796875 C-0.17210938 8.08914062 -0.14890625 6.99859375 -0.125 5.875 C-0.10695313 4.77929688 -0.08890625 3.68359375 -0.0703125 2.5546875 C-0.04710938 1.71164063 -0.02390625 0.86859375 0 0 Z " fill="#FEFEFE" transform="translate(68,52)"/>
<path d="M0 0 C0.99 0 1.98 0 3 0 C3.03758423 0.83809204 3.03758423 0.83809204 3.07592773 1.69311523 C3.19343105 4.27472428 3.3154438 6.85610236 3.4375 9.4375 C3.47681641 10.31599609 3.51613281 11.19449219 3.55664062 12.09960938 C3.82862668 17.76947262 4.31777645 23.36448953 5 29 C3.68 29 2.36 29 1 29 C-0.09857724 22.8323971 -0.11539104 16.81584877 -0.0625 10.5625 C-0.05798828 9.54478516 -0.05347656 8.52707031 -0.04882812 7.47851562 C-0.03712437 4.98561491 -0.02072848 2.49283926 0 0 Z " fill="#2FFC00" transform="translate(23,71)"/>
<path d="M0 0 C3.37503669 1.1858237 5.64722731 2.27573689 8 5 C1.25 9 1.25 9 -1 9 C-0.67 6.03 -0.34 3.06 0 0 Z " fill="#FEFFFF" transform="translate(10,78)"/>
<path d="M0 0 C-0.33 1.65 -0.66 3.3 -1 5 C-2.65 4.67 -4.3 4.34 -6 4 C-2.25 0 -2.25 0 0 0 Z " fill="#FFFFFF" transform="translate(37,91)"/>
<path d="M0 0 C2 3 2 3 1.625 5.1875 C1.41875 5.785625 1.2125 6.38375 1 7 C0.01 6.34 -0.98 5.68 -2 5 C-1.125 1.125 -1.125 1.125 0 0 Z " fill="#FFFFFF" transform="translate(113,55)"/>
<path d="M0 0 C0.33 0 0.66 0 1 0 C1.1875 2.375 1.1875 2.375 1 5 C0.01 5.66 -0.98 6.32 -2 7 C-2.33 6.01 -2.66 5.02 -3 4 C-1.625 1.8125 -1.625 1.8125 0 0 Z " fill="#FFFFFE" transform="translate(24,26)"/>
</svg>
